<?xml version='1.0' encoding='utf-8'?>
<svg xmlns="http://www.w3.org/2000/svg" version="1.1" id="Ebene_1" x="0px" y="0px" viewBox="0 0 68.6 21.2" style="enable-background:new 0 0 68.6 21.2;" xml:space="preserve">
  <!--Letter outlines extracted directly from the embedded Interstate-Black and Interstate-Regular fonts in the supplied print EPS. Web background, emblem and colours preserved.-->
  <style type="text/css">
	.st0{fill:#FFFFFF;}
	.st1{fill:#FF0000;}
	.st2{fill:#FFCC00;}
	.st3{fill:url(#SVGID_1_);}
	.st4{fill:url(#SVGID_2_);}
	.st5{fill:url(#SVGID_3_);}
</style>
  <g>
    <g>
      <path class="st0" d="M0,0v11.5c0,6,3.7,9.7,9.7,9.7h58.9V0H0z" />
    </g>
    <g>
      <path d="M33,6.7c0-0.7,0.6-1.3,1.3-1.3c0.7,0,1.3,0.6,1.3,1.3c0,0.7-0.6,1.3-1.3,1.3C33.6,7.9,33,7.4,33,6.7z" />
      <path class="st1" d="M33,10.4c0-0.7,0.6-1.3,1.3-1.3c0.7,0,1.3,0.6,1.3,1.3c0,0.7-0.6,1.3-1.3,1.3C33.6,11.6,33,11.1,33,10.4z" />
      <path class="st2" d="M33,14.1c0-0.7,0.6-1.3,1.3-1.3c0.7,0,1.3,0.6,1.3,1.3c0,0.7-0.6,1.3-1.3,1.3C33.6,15.4,33,14.8,33,14.1z" />
    </g>
    <g id="wortmarke" fill="#000000" aria-label="Umweltprobenbank des Bundes">
      <path aria-label="UMWELT" d="M40.392857 6.832143V5.4H39.685714V6.832143C39.685714 7.139286 39.571429 7.328571 39.3 7.328571C39.028571 7.328571 38.907143 7.139286 38.907143 6.832143V5.4H38.2V6.832143C38.2 7.625 38.660714 7.939286 39.289286 7.939286C39.917857 7.939286 40.392857 7.625 40.392857 6.832143Z M43.665302 7.9V5.4H43.036731L42.729588 6.067857C42.572445 6.407143 42.45816 6.678571 42.415302 6.821429C42.376017 6.682143 42.251017 6.389286 42.101017 6.067857L41.793874 5.4H41.15816V7.9H41.80816V7.303571C41.80816 7.057143 41.804588 6.832143 41.793874 6.639286C41.868874 6.825 41.997445 7.114286 42.08316 7.292857L42.411731 7.985714L42.740302 7.292857C42.826017 7.114286 42.954588 6.825 43.029588 6.639286C43.018874 6.832143 43.015302 7.057143 43.015302 7.303571V7.9Z M47.311633 5.4H46.60449L46.536633 5.817857C46.47949 6.171429 46.411633 6.607143 46.386633 6.903571C46.358062 6.610714 46.27949 6.178571 46.200919 5.821429L46.115204 5.4H45.47949L45.393776 5.821429C45.315204 6.178571 45.236633 6.610714 45.208062 6.903571C45.183062 6.607143 45.115204 6.171429 45.058062 5.817857L44.990204 5.4H44.275919L44.872347 7.9H45.50449L45.618776 7.357143C45.700919 6.971429 45.775919 6.503571 45.790204 6.321429C45.80449 6.503571 45.87949 6.971429 45.961633 7.357143L46.075919 7.9H46.715204Z M49.86043 7.9V7.317857H48.606859V6.889286H49.346145V6.314286H48.606859V5.982143H49.83543V5.4H47.921145V7.9Z M52.372657 7.9V7.296429H51.265514V5.4H50.565514V7.9Z M54.7 6.003571V5.4H52.607143V6.003571H53.307143V7.9H54V6.003571Z" />
      <path aria-label="PROBENBANK" d="M40.25 10.028571C40.25 9.425 39.860714 9.2 39.275 9.2H38.2V11.7H38.882143V10.889286H39.228571C39.828571 10.889286 40.25 10.664286 40.25 10.028571ZM39.560714 10.039286C39.560714 10.228571 39.471429 10.325 39.246429 10.325H38.882143V9.764286H39.257143C39.478571 9.764286 39.560714 9.875 39.560714 10.039286Z M42.976877 11.7 42.476877 10.746429C42.751877 10.621429 42.926877 10.389286 42.926877 10.014286C42.926877 9.421429 42.537591 9.2 41.951877 9.2H40.83402V11.7H41.516163V10.857143H41.794734L42.201877 11.7ZM42.237591 10.032143C42.237591 10.210714 42.148306 10.310714 41.923306 10.310714H41.516163V9.764286H41.93402C42.151877 9.764286 42.237591 9.875 42.237591 10.032143Z M45.811544 10.446429C45.811544 9.614286 45.336544 9.160714 44.657972 9.160714C43.979401 9.160714 43.497258 9.621429 43.497258 10.453571C43.497258 11.285714 43.972258 11.739286 44.650829 11.739286C45.329401 11.739286 45.811544 11.278571 45.811544 10.446429ZM45.093687 10.453571C45.093687 10.903571 44.936544 11.135714 44.657972 11.135714C44.379401 11.135714 44.215115 10.896429 44.215115 10.446429C44.215115 9.996429 44.372258 9.764286 44.650829 9.764286C44.929401 9.764286 45.093687 10.003571 45.093687 10.453571Z M48.606763 10.892857C48.606763 10.610714 48.47462 10.435714 48.24962 10.339286C48.417477 10.242857 48.54962 10.121429 48.54962 9.85C48.54962 9.432143 48.296049 9.2 47.67462 9.2H46.467477V11.7H47.667477C48.296049 11.7 48.606763 11.403571 48.606763 10.892857ZM47.871049 9.942857C47.871049 10.060714 47.813906 10.139286 47.653191 10.139286H47.131763V9.746429H47.653191C47.817477 9.746429 47.871049 9.832143 47.871049 9.942857ZM47.928191 10.907143C47.928191 11.05 47.84962 11.153571 47.678191 11.153571H47.131763V10.667857H47.681763C47.846049 10.667857 47.928191 10.760714 47.928191 10.907143Z M51.220092 11.7V11.117857H49.966521V10.689286H50.705806V10.114286H49.966521V9.782143H51.195092V9.2H49.280806V11.7Z M54.101867 11.7V9.2H53.437581V9.882143C53.437581 10.085714 53.441153 10.417857 53.45901 10.528571C53.405439 10.425 53.18401 10.092857 53.069724 9.939286L52.519724 9.2H51.90901V11.7H52.573296V10.935714C52.573296 10.732143 52.569724 10.4 52.551867 10.289286C52.616153 10.4 52.830439 10.721429 52.941153 10.875L53.537581 11.7Z M57.00702 10.892857C57.00702 10.610714 56.874877 10.435714 56.649877 10.339286C56.817734 10.242857 56.949877 10.121429 56.949877 9.85C56.949877 9.432143 56.696305 9.2 56.074877 9.2H54.867734V11.7H56.067734C56.696305 11.7 57.00702 11.403571 57.00702 10.892857ZM56.271305 9.942857C56.271305 10.060714 56.214163 10.139286 56.053448 10.139286H55.53202V9.746429H56.053448C56.217734 9.746429 56.271305 9.832143 56.271305 9.942857ZM56.328448 10.907143C56.328448 11.05 56.249877 11.153571 56.078448 11.153571H55.53202V10.667857H56.08202C56.246305 10.667857 56.328448 10.760714 56.328448 10.907143Z M59.958116 11.7 59.050973 9.2H58.350973L57.44383 11.7H58.186687L58.322402 11.260714H59.072402L59.208116 11.7ZM58.904545 10.710714H58.490259L58.536687 10.546429C58.625973 10.228571 58.665259 10.089286 58.697402 9.921429C58.729545 10.089286 58.76883 10.225 58.858116 10.546429Z M62.72699 11.7V9.2H62.062705V9.882143C62.062705 10.085714 62.066276 10.417857 62.084133 10.528571C62.030562 10.425 61.809133 10.092857 61.694847 9.939286L61.144847 9.2H60.534133V11.7H61.198419V10.935714C61.198419 10.732143 61.194847 10.4 61.17699 10.289286C61.241276 10.4 61.455562 10.721429 61.566276 10.875L62.162705 11.7Z M65.8 11.7 64.960714 10.082143 65.714286 9.2H64.871429L64.671429 9.453571C64.510714 9.657143 64.292857 9.946429 64.189286 10.110714C64.196429 9.928571 64.2 9.703571 64.2 9.492857V9.2H63.492857V11.7H64.2V10.946429L64.457143 10.635714L64.978571 11.7Z" />
      <path aria-label="DES BUNDES" d="M39.948 14.15C39.948 13.338429 39.445286 13 38.827571 13H38.2V15.3H38.827571C39.428857 15.3 39.948 14.961571 39.948 14.15ZM39.596429 14.15C39.596429 14.633 39.373 14.964857 38.827571 14.964857H38.545V13.335143H38.827571C39.373 13.335143 39.596429 13.667 39.596429 14.15ZM42.154566 15.3V14.964857H40.968423V14.238714H41.628851V13.903571H40.968423V13.335143H42.10528V13H40.623423V15.3H42.154566ZM44.383743 14.639571C44.383743 14.228857 44.101171 14.084286 43.647743 13.946286C43.250171 13.828 43.145029 13.749143 43.145029 13.588143C43.145029 13.433714 43.260029 13.302286 43.529457 13.302286C43.756171 13.302286 43.920457 13.374571 44.065029 13.522429L44.308171 13.276C44.104457 13.078857 43.867886 12.963857 43.555743 12.963857C43.131886 12.963857 42.796743 13.207 42.796743 13.604571C42.796743 14.015286 43.030029 14.136857 43.516314 14.281429C43.900743 14.396429 44.035457 14.485143 44.035457 14.662571C44.035457 14.886 43.881029 14.997714 43.559029 14.997714C43.342171 14.997714 43.115457 14.892571 42.961029 14.725L42.7146 14.964857C42.908457 15.191571 43.1976 15.336143 43.532743 15.336143C44.120886 15.336143 44.383743 15.053571 44.383743 14.639571ZM47.682531 14.593571C47.682531 14.274857 47.475531 14.107286 47.294817 14.058C47.462388 13.975857 47.587245 13.831286 47.587245 13.598C47.587245 13.210286 47.327674 13 46.926817 13H45.980531V15.3H46.893959C47.396674 15.3 47.682531 15.060143 47.682531 14.593571ZM47.242245 13.617714C47.242245 13.768857 47.150245 13.910143 46.923531 13.910143H46.305817V13.315429H46.923531C47.153531 13.315429 47.242245 13.446857 47.242245 13.617714ZM47.337531 14.603429C47.337531 14.830143 47.225817 14.984571 46.920245 14.984571H46.305817V14.222286H46.930102C47.189674 14.222286 47.337531 14.366857 47.337531 14.603429ZM50.095896 14.340571V13H49.750896V14.347143C49.750896 14.767714 49.580039 14.991143 49.21861 14.991143C48.87361 14.991143 48.692896 14.757857 48.692896 14.324143V13H48.347896V14.334C48.347896 14.968143 48.64361 15.336143 49.212039 15.336143C49.783753 15.336143 50.095896 14.984571 50.095896 14.340571ZM52.621946 15.3V13H52.286803V14.186143C52.286803 14.314286 52.290089 14.642857 52.290089 14.728286C52.257232 14.669143 52.15866 14.498286 52.099517 14.403L51.225517 13H50.873946V15.3H51.209089V14.107286C51.209089 13.979143 51.205803 13.660429 51.205803 13.575C51.241946 13.634143 51.320803 13.772143 51.37666 13.857571L52.293374 15.3H52.621946ZM55.163273 14.15C55.163273 13.338429 54.660559 13 54.042844 13H53.415273V15.3H54.042844C54.64413 15.3 55.163273 14.961571 55.163273 14.15ZM54.811702 14.15C54.811702 14.633 54.588273 14.964857 54.042844 14.964857H53.760273V13.335143H54.042844C54.588273 13.335143 54.811702 13.667 54.811702 14.15ZM57.373796 15.3V14.964857H56.187653V14.238714H56.848081V13.903571H56.187653V13.335143H57.32451V13H55.842653V15.3H57.373796ZM59.6 14.639571C59.6 14.228857 59.317429 14.084286 58.864 13.946286C58.466429 13.828 58.361286 13.749143 58.361286 13.588143C58.361286 13.433714 58.476286 13.302286 58.745714 13.302286C58.972429 13.302286 59.136714 13.374571 59.281286 13.522429L59.524429 13.276C59.320714 13.078857 59.084143 12.963857 58.772 12.963857C58.348143 12.963857 58.013 13.207 58.013 13.604571C58.013 14.015286 58.246286 14.136857 58.732571 14.281429C59.117 14.396429 59.251714 14.485143 59.251714 14.662571C59.251714 14.886 59.097286 14.997714 58.775286 14.997714C58.558429 14.997714 58.331714 14.892571 58.177286 14.725L57.930857 14.964857C58.124714 15.191571 58.413857 15.336143 58.749 15.336143C59.337143 15.336143 59.6 15.053571 59.6 14.639571Z" />
    </g>
    <g>
      <g>
        <linearGradient id="SVGID_1_" gradientUnits="userSpaceOnUse" x1="7.1618" y1="3.542" x2="7.1618" y2="17.7149">
          <stop offset="0" style="stop-color:#84B20D" />
          <stop offset="1" style="stop-color:#688C0A" />
        </linearGradient>
        <path class="st3" d="M10.8,3.5H7.5h-4v7.9c0,4.5,2.6,6.2,6.1,6.2c0.4,0,0.7,0,1.1-0.1v0V3.5z" />
      </g>
      <g>
        <linearGradient id="SVGID_2_" gradientUnits="userSpaceOnUse" x1="24.1128" y1="3.542" x2="24.1128" y2="17.6465">
          <stop offset="0" style="stop-color:#A3A074" />
          <stop offset="1" style="stop-color:#86835F" />
        </linearGradient>
        <path class="st4" d="M28.7,10c0.9-0.5,1.7-1.2,1.7-2.8c0-2.4-1.4-3.7-4.9-3.7h-2.2c1.6,1.3,2,3.3,2,4.7c0,2.4-0.9,6.3-7.2,6.3     h-0.5v3.1h7.9c3.5,0,5.3-1.7,5.3-4.6C30.7,11.5,30,10.5,28.7,10z" />
      </g>
      <linearGradient id="SVGID_3_" gradientUnits="userSpaceOnUse" x1="18.0026" y1="3.542" x2="18.0026" y2="17.6485">
        <stop offset="0" style="stop-color:#C6C2A1" />
        <stop offset="1" style="stop-color:#A29F84" />
      </linearGradient>
      <path class="st5" d="M23.8,8.2c0-3.4-2.2-4.7-5.5-4.7h-6.1v14.1h3.8v-4.6h2C21.4,13.1,23.8,11.8,23.8,8.2z" />
    </g>
  </g>
</svg>