<?xml version="1.0" encoding="utf-8"?>
<!-- Generator: Adobe Illustrator 23.0.2, SVG Export Plug-In . SVG Version: 6.00 Build 0)  -->
<svg version="1.1" id="Ebene_1" xmlns="http://www.w3.org/2000/svg" xmlns:xlink="http://www.w3.org/1999/xlink" x="0px" y="0px"
	 viewBox="0 0 68.6 21.2" style="enable-background:new 0 0 68.6 21.2;" xml:space="preserve">
<style type="text/css">
	.st0{fill:#FFFFFF;}
	.st1{fill:#FF0000;}
	.st2{fill:#FFCC00;}
	.st3{fill:url(#SVGID_1_);}
	.st4{fill:url(#SVGID_2_);}
	.st5{fill:url(#SVGID_3_);}
</style>
<g>
	<g>
		<path class="st0" d="M0,0v11.5c0,6,3.7,9.7,9.7,9.7h58.9V0H0z"/>
	</g>
	<g>
		<path d="M33,6.7c0-0.7,0.6-1.3,1.3-1.3c0.7,0,1.3,0.6,1.3,1.3c0,0.7-0.6,1.3-1.3,1.3C33.6,7.9,33,7.4,33,6.7z"/>
		<path class="st1" d="M33,10.4c0-0.7,0.6-1.3,1.3-1.3c0.7,0,1.3,0.6,1.3,1.3c0,0.7-0.6,1.3-1.3,1.3C33.6,11.6,33,11.1,33,10.4z"/>
		<path class="st2" d="M33,14.1c0-0.7,0.6-1.3,1.3-1.3c0.7,0,1.3,0.6,1.3,1.3c0,0.7-0.6,1.3-1.3,1.3C33.6,15.4,33,14.8,33,14.1z"/>
	</g>
	<path d="M39.7,6.8c0,0.3-0.1,0.5-0.4,0.5c-0.3,0-0.4-0.2-0.4-0.5V5.4h-0.7v1.4c0,0.8,0.5,1.1,1.1,1.1c0.6,0,1.1-0.3,1.1-1.1V5.4
		h-0.7V6.8z M41.8,7.3c0-0.2,0-0.5,0-0.7c0.1,0.2,0.2,0.5,0.3,0.7L42.4,8l0.3-0.7c0.1-0.2,0.2-0.5,0.3-0.7c0,0.2,0,0.4,0,0.7v0.6
		h0.7V5.4h-0.6l-0.3,0.7c-0.2,0.3-0.3,0.6-0.3,0.8c0-0.1-0.2-0.4-0.3-0.8l-0.3-0.7h-0.6v2.5h0.7V7.3z M47.3,5.4h-0.7l-0.1,0.4
		c-0.1,0.4-0.1,0.8-0.2,1.1c0-0.3-0.1-0.7-0.2-1.1l-0.1-0.4h-0.6l-0.1,0.4c-0.1,0.4-0.2,0.8-0.2,1.1c0-0.3-0.1-0.7-0.2-1.1L45,5.4
		h-0.7l0.6,2.5h0.6l0.1-0.5c0.1-0.4,0.2-0.9,0.2-1c0,0.2,0.1,0.7,0.2,1l0.1,0.5h0.6L47.3,5.4z M49.9,7.3h-1.3V6.9h0.7V6.3h-0.7V6
		h1.2V5.4h-1.9v2.5h2V7.3z M52.4,7.3h-1.1V5.4h-0.7v2.5h1.8V7.3z M53.3,7.9H54V6h0.7V5.4h-2.1V6h0.7V7.9z M39.3,9.2h-1.1v2.5h0.7
		v-0.8h0.3c0.6,0,1-0.2,1-0.9C40.3,9.4,39.9,9.2,39.3,9.2z M39.3,10.3h-0.4V9.7h0.4c0.2,0,0.3,0.1,0.3,0.3
		C39.6,10.2,39.5,10.3,39.3,10.3z M42.5,10.7c0.3-0.1,0.5-0.4,0.5-0.7c0-0.6-0.4-0.8-1-0.8h-1.1v2.5h0.7v-0.9h0.3l0.4,0.9H43
		L42.5,10.7z M42,10.3h-0.4V9.7H42c0.2,0,0.3,0.1,0.3,0.3C42.3,10.2,42.2,10.3,42,10.3z M44.7,9.1c-0.7,0-1.2,0.5-1.2,1.3
		c0,0.8,0.5,1.3,1.2,1.3c0.7,0,1.2-0.5,1.2-1.3C45.9,9.6,45.4,9.1,44.7,9.1z M44.7,11.1c-0.3,0-0.4-0.2-0.4-0.7
		c0-0.5,0.2-0.7,0.4-0.7c0.3,0,0.4,0.2,0.4,0.7S45,11.1,44.7,11.1z M48.3,10.3c0.2-0.1,0.3-0.2,0.3-0.5c0-0.4-0.3-0.7-0.9-0.7h-1.2
		v2.5h1.2c0.6,0,0.9-0.3,0.9-0.8C48.7,10.6,48.5,10.4,48.3,10.3z M47.2,9.7h0.5c0.2,0,0.2,0.1,0.2,0.2c0,0.1-0.1,0.2-0.2,0.2h-0.5
		V9.7z M47.7,11.1h-0.6v-0.5h0.6c0.2,0,0.2,0.1,0.2,0.2C48,11,47.9,11.1,47.7,11.1z M51.2,9.7V9.2h-1.9v2.5h2v-0.6H50v-0.4h0.7v-0.6
		H50V9.7H51.2z M54.2,11.7V9.2h-0.7v0.7c0,0.2,0,0.5,0,0.7c-0.1-0.1-0.3-0.4-0.4-0.6l-0.6-0.7h-0.6v2.5h0.7v-0.8c0-0.2,0-0.5,0-0.7
		c0.1,0.1,0.3,0.4,0.4,0.6l0.6,0.8H54.2z M57.1,10.9c0-0.3-0.1-0.5-0.4-0.6c0.2-0.1,0.3-0.2,0.3-0.5c0-0.4-0.3-0.7-0.9-0.7h-1.2v2.5
		h1.2C56.7,11.7,57.1,11.4,57.1,10.9z M55.6,9.7h0.5c0.2,0,0.2,0.1,0.2,0.2c0,0.1-0.1,0.2-0.2,0.2h-0.5V9.7z M55.6,10.6h0.6
		c0.2,0,0.2,0.1,0.2,0.2c0,0.1-0.1,0.2-0.3,0.2h-0.6V10.6z M58.4,9.2l-0.9,2.5h0.8l0.1-0.4h0.8l0.1,0.4H60l-0.9-2.5H58.4z
		 M58.5,10.7l0-0.2c0.1-0.3,0.1-0.5,0.2-0.6c0,0.2,0.1,0.3,0.2,0.6l0,0.2H58.5z M62.1,9.8c0,0.2,0,0.5,0,0.7
		c-0.1-0.1-0.3-0.4-0.4-0.6l-0.6-0.7h-0.6v2.5h0.7v-0.8c0-0.2,0-0.5,0-0.7c0.1,0.1,0.3,0.4,0.4,0.6l0.6,0.8h0.6V9.2h-0.7V9.8z
		 M65,10l0.8-0.9h-0.9l-0.2,0.3c-0.2,0.2-0.4,0.5-0.5,0.7c0-0.2,0-0.4,0-0.6V9.2h-0.7v2.5h0.7v-0.8l0.3-0.3l0.5,1.1h0.8L65,10z
		 M38.9,13h-0.6v2.3h0.6c0.6,0,1.1-0.3,1.1-1.1C40,13.3,39.5,13,38.9,13z M38.9,14.9h-0.3v-1.6h0.3c0.5,0,0.8,0.3,0.8,0.8
		C39.7,14.6,39.4,14.9,38.9,14.9z M41.1,14.2h0.7v-0.3h-0.7v-0.6h1.1V13h-1.5v2.3h1.5v-0.3h-1.2V14.2z M43.7,13.9
		c-0.4-0.1-0.5-0.2-0.5-0.4c0-0.2,0.1-0.3,0.4-0.3c0.2,0,0.4,0.1,0.5,0.2l0.2-0.2c-0.2-0.2-0.4-0.3-0.7-0.3c-0.4,0-0.7,0.2-0.7,0.6
		c0,0.4,0.2,0.5,0.7,0.7c0.4,0.1,0.5,0.2,0.5,0.4c0,0.2-0.2,0.3-0.5,0.3c-0.2,0-0.4-0.1-0.6-0.3l-0.2,0.2c0.2,0.2,0.5,0.4,0.8,0.4
		c0.6,0,0.8-0.3,0.8-0.7C44.5,14.2,44.2,14.1,43.7,13.9z M47.4,14.1c0.2-0.1,0.3-0.2,0.3-0.5c0-0.4-0.3-0.6-0.7-0.6h-0.9v2.3H47
		c0.5,0,0.8-0.2,0.8-0.7C47.8,14.3,47.6,14.1,47.4,14.1z M46.4,13.3H47c0.2,0,0.3,0.1,0.3,0.3c0,0.2-0.1,0.3-0.3,0.3h-0.6V13.3z
		 M47,15h-0.6v-0.8H47c0.3,0,0.4,0.1,0.4,0.4C47.4,14.8,47.3,15,47,15z M49.9,14.3c0,0.4-0.2,0.6-0.5,0.6c-0.3,0-0.5-0.2-0.5-0.7V13
		h-0.3v1.3c0,0.6,0.3,1,0.9,1c0.6,0,0.9-0.3,0.9-1V13h-0.3V14.3z M52.4,14.2c0,0.1,0,0.4,0,0.5c0-0.1-0.1-0.2-0.2-0.3L51.3,13H51
		v2.3h0.3v-1.2c0-0.1,0-0.4,0-0.5c0,0.1,0.1,0.2,0.2,0.3l0.9,1.4h0.3V13h-0.3V14.2z M54.2,13h-0.6v2.3h0.6c0.6,0,1.1-0.3,1.1-1.1
		C55.3,13.3,54.8,13,54.2,13z M54.2,14.9h-0.3v-1.6h0.3c0.5,0,0.8,0.3,0.8,0.8C54.9,14.6,54.7,14.9,54.2,14.9z M56.3,14.2H57v-0.3
		h-0.7v-0.6h1.1V13H56v2.3h1.5v-0.3h-1.2V14.2z M59,13.9c-0.4-0.1-0.5-0.2-0.5-0.4c0-0.2,0.1-0.3,0.4-0.3c0.2,0,0.4,0.1,0.5,0.2
		l0.2-0.2c-0.2-0.2-0.4-0.3-0.7-0.3c-0.4,0-0.7,0.2-0.7,0.6c0,0.4,0.2,0.5,0.7,0.7c0.4,0.1,0.5,0.2,0.5,0.4c0,0.2-0.2,0.3-0.5,0.3
		c-0.2,0-0.4-0.1-0.6-0.3l-0.2,0.2c0.2,0.2,0.5,0.4,0.8,0.4c0.6,0,0.8-0.3,0.8-0.7C59.7,14.2,59.4,14.1,59,13.9z"/>
	<g>
		<g>
			<linearGradient id="SVGID_1_" gradientUnits="userSpaceOnUse" x1="7.1618" y1="3.542" x2="7.1618" y2="17.7149">
				<stop  offset="0" style="stop-color:#84B20D"/>
				<stop  offset="1" style="stop-color:#688C0A"/>
			</linearGradient>
			<path class="st3" d="M10.8,3.5H7.5h-4v7.9c0,4.5,2.6,6.2,6.1,6.2c0.4,0,0.7,0,1.1-0.1v0V3.5z"/>
		</g>
		<g>
			<linearGradient id="SVGID_2_" gradientUnits="userSpaceOnUse" x1="24.1128" y1="3.542" x2="24.1128" y2="17.6465">
				<stop  offset="0" style="stop-color:#A3A074"/>
				<stop  offset="1" style="stop-color:#86835F"/>
			</linearGradient>
			<path class="st4" d="M28.7,10c0.9-0.5,1.7-1.2,1.7-2.8c0-2.4-1.4-3.7-4.9-3.7h-2.2c1.6,1.3,2,3.3,2,4.7c0,2.4-0.9,6.3-7.2,6.3
				h-0.5v3.1h7.9c3.5,0,5.3-1.7,5.3-4.6C30.7,11.5,30,10.5,28.7,10z"/>
		</g>
		<linearGradient id="SVGID_3_" gradientUnits="userSpaceOnUse" x1="18.0026" y1="3.542" x2="18.0026" y2="17.6485">
			<stop  offset="0" style="stop-color:#C6C2A1"/>
			<stop  offset="1" style="stop-color:#A29F84"/>
		</linearGradient>
		<path class="st5" d="M23.8,8.2c0-3.4-2.2-4.7-5.5-4.7h-6.1v14.1h3.8v-4.6h2C21.4,13.1,23.8,11.8,23.8,8.2z"/>
	</g>
</g>
</svg>
